<?xml version="1.0" encoding="UTF-8" standalone="no"?>
<!-- Created with Inkscape (http://www.inkscape.org/) -->

<svg
   xmlns:dc="http://purl.org/dc/elements/1.1/"
   xmlns:cc="http://creativecommons.org/ns#"
   xmlns:rdf="http://www.w3.org/1999/02/22-rdf-syntax-ns#"
   xmlns:svg="http://www.w3.org/2000/svg"
   xmlns="http://www.w3.org/2000/svg"
   xmlns:sodipodi="http://sodipodi.sourceforge.net/DTD/sodipodi-0.dtd"
   xmlns:inkscape="http://www.inkscape.org/namespaces/inkscape"
   width="453.90192"
   height="68.818214"
   id="svg2"
   version="1.1"
   inkscape:version="0.48.4 r9939"
   sodipodi:docname="gastrojob24_white.svg">
  <defs
     id="defs4">
    <filter
       id="filter3079"
       inkscape:label="Drop Shadow"
       color-interpolation-filters="sRGB">
      <feFlood
         id="feFlood3081"
         flood-opacity="0.5"
         flood-color="rgb(0,0,0)"
         result="flood" />
      <feComposite
         id="feComposite3083"
         in2="SourceGraphic"
         in="flood"
         operator="in"
         result="composite1" />
      <feGaussianBlur
         id="feGaussianBlur3085"
         stdDeviation="2"
         result="blur" />
      <feOffset
         id="feOffset3087"
         dx="4"
         dy="4"
         result="offset" />
      <feComposite
         id="feComposite3089"
         in2="offset"
         in="SourceGraphic"
         operator="over"
         result="composite2" />
    </filter>
    <filter
       color-interpolation-filters="sRGB"
       id="filter3079-3"
       inkscape:label="Drop Shadow">
      <feFlood
         id="feFlood3081-6"
         flood-opacity="0.5"
         flood-color="rgb(0,0,0)"
         result="flood" />
      <feComposite
         id="feComposite3083-7"
         in2="SourceGraphic"
         in="flood"
         operator="in"
         result="composite1" />
      <feGaussianBlur
         id="feGaussianBlur3085-5"
         stdDeviation="2"
         result="blur" />
      <feOffset
         id="feOffset3087-3"
         dx="4"
         dy="4"
         result="offset" />
      <feComposite
         id="feComposite3089-5"
         in2="offset"
         in="SourceGraphic"
         operator="over"
         result="composite2" />
    </filter>
  </defs>
  <sodipodi:namedview
     id="base"
     pagecolor="#ffffff"
     bordercolor="#666666"
     borderopacity="1.0"
     inkscape:pageopacity="0.0"
     inkscape:pageshadow="2"
     inkscape:zoom="0.98994949"
     inkscape:cx="-23.07964"
     inkscape:cy="-69.961119"
     inkscape:document-units="px"
     inkscape:current-layer="layer1"
     showgrid="false"
     inkscape:window-width="1886"
     inkscape:window-height="1025"
     inkscape:window-x="31"
     inkscape:window-y="-3"
     inkscape:window-maximized="1"
     fit-margin-top="0"
     fit-margin-left="0"
     fit-margin-right="0"
     fit-margin-bottom="0" />
  <metadata
     id="metadata7">
    <rdf:RDF>
      <cc:Work
         rdf:about="">
        <dc:format>image/svg+xml</dc:format>
        <dc:type
           rdf:resource="http://purl.org/dc/dcmitype/StillImage" />
        <dc:title></dc:title>
      </cc:Work>
    </rdf:RDF>
  </metadata>
  <g
     inkscape:label="Ebene 1"
     inkscape:groupmode="layer"
     id="layer1"
     transform="translate(-169.53391,-40.630483)">
    <path
       inkscape:connector-curvature="0"
       style="font-size:40px;font-style:normal;font-weight:normal;line-height:125%;letter-spacing:0px;word-spacing:0px;fill:#fc6e26;fill-opacity:1;stroke:none;font-family:Sans;opacity:1"
       d="m 257.57188,40.630483 0,67.566977 4.73543,0 0,-67.566977 -4.73543,0 z m 14.61808,0 0,67.566977 4.73544,0 0,-67.566977 -4.73544,0 z m 179.90543,0 0,67.566977 4.73543,0 0,-23.773564 14.65927,23.773564 6.17665,0 -15.93577,-25.858965 15.27694,-22.800379 -6.05313,0 -14.12396,20.993032 0,-39.900665 -4.73543,0 z m -269.09637,1.529294 c -4.20356,6.7e-5 -7.48063,1.63362 -9.88265,4.935449 -2.38488,3.30194 -3.58246,7.820308 -3.58246,13.555104 0,4.952866 0.86129,8.828241 2.59419,11.608731 1.7329,2.780556 4.52268,4.813838 8.40026,6.117175 l 3.17068,1.0427 c 2.64221,0.89791 4.53297,2.30555 5.68252,4.101286 1.16669,1.79578 1.77062,4.251926 1.77066,7.437929 -4e-5,3.649462 -0.81673,6.441586 -2.42949,8.411116 -1.61281,1.969553 -3.90847,2.989073 -6.87669,2.989073 -1.95596,0 -3.94621,-0.51555 -5.97077,-1.52929 -2.02457,-1.013741 -4.10747,-2.519856 -6.21783,-4.51837 l 0,9.03674 c 2.19614,1.3613 4.34081,2.36345 6.38255,3.05858 2.05887,0.69514 3.98735,1.0427 5.80605,1.0427 4.82122,0 8.46543,-1.62198 10.95327,-4.86593 2.50495,-3.24395 3.78833,-7.965053 3.78836,-14.250239 -3e-5,-5.271404 -0.94712,-9.523308 -2.80009,-12.651429 -1.83587,-3.157041 -4.68741,-5.358289 -8.56496,-6.603769 l -3.12951,-1.0427 c -2.84814,-0.897846 -4.8178,-2.096945 -5.84723,-3.545181 -1.01231,-1.477109 -1.48241,-3.666791 -1.4824,-6.534256 -10e-6,-3.417699 0.73776,-6.00126 2.26477,-7.855009 1.54416,-1.853637 3.75745,-2.780467 6.58844,-2.780534 1.62992,6.7e-5 3.31478,0.399752 5.06485,1.181727 1.75004,0.782086 3.58587,1.952224 5.559,3.545181 l 0,-8.550143 c -1.95596,-1.100557 -3.85358,-1.952113 -5.7237,-2.50248 -1.87019,-0.550257 -3.71631,-0.834094 -5.51782,-0.834161 z m 169.89925,1.181727 0,64.855956 5.06486,0 0,-56.931433 9.92383,44.488546 5.18839,0 9.92384,-44.488546 0,56.931433 5.06485,0 0,-64.855956 -7.74141,0 -9.84147,44.140979 -9.80029,-44.140979 -7.7826,0 z m -148.48684,2.363454 0,13.833158 -3.50011,0 0,6.256202 3.50011,0 0,26.415074 c 0,6.082429 0.66913,10.264818 2.05889,12.581918 1.38974,2.28816 3.92217,3.40615 7.5767,3.40615 l 4.85897,0 0,-6.67328 -4.85897,0 c -1.97312,0 -3.3011,-0.53871 -3.95306,-1.668319 -0.63483,-1.129587 -0.94711,-3.678402 -0.94709,-7.646469 l 0,-26.415074 9.75912,0 0,-6.256202 -9.75912,0 0,-13.833158 -4.73544,0 z m 278.36136,0 0,13.833158 -3.50011,0 0,6.256202 3.50011,0 0,26.415074 c 0,6.082429 0.66914,10.264818 2.05888,12.581918 1.38975,2.28816 3.92216,3.40615 7.5767,3.40615 l 4.85897,0 0,-6.67328 -4.85897,0 c -1.97311,0 -3.30109,-0.53871 -3.95306,-1.668319 -0.63483,-1.129587 -0.9471,-3.678402 -0.94709,-7.646469 l 0,-26.415074 9.75912,0 0,-6.256202 -9.75912,0 0,-13.833158 -4.73543,0 z M 237.23008,58.356389 c -4.32368,4.5e-5 -7.77917,2.398267 -10.33561,7.090363 -2.5393,4.663222 -3.78836,10.942603 -3.78836,18.90763 0,7.704416 1.3177,13.833158 3.99424,18.351528 2.6937,4.51837 6.35509,6.74279 10.95328,6.74279 1.83582,0 3.65106,-0.26646 5.43546,-0.90367 1.78434,-0.63721 3.53096,-1.56404 5.22956,-2.78053 l 0,-7.57696 c -1.68144,1.506138 -3.39033,2.6531 -5.10603,3.40615 -1.6986,0.75306 -3.45209,1.11222 -5.27075,1.11222 -3.13981,0 -5.60361,-1.44239 -7.37081,-4.30983 -1.75006,-2.896382 -2.71774,-7.078751 -2.92361,-12.581917 l 21.783,0 0,-3.962262 c -2e-5,-7.240931 -1.153,-12.900475 -3.41775,-17.100283 -2.24764,-4.228681 -5.30509,-6.395184 -9.18262,-6.395229 z m 61.68421,0 c -4.32367,4.5e-5 -7.77915,2.398267 -10.33559,7.090363 -2.53931,4.663222 -3.82954,10.942603 -3.82954,18.90763 0,7.704416 1.35887,13.833158 4.03543,18.351528 2.69369,4.51837 6.35508,6.74279 10.95326,6.74279 1.83582,0 3.60989,-0.26646 5.39428,-0.90367 1.78434,-0.63721 3.53096,-1.56404 5.22956,-2.78053 l 0,-7.57696 c -1.68144,1.506138 -3.34914,2.6531 -5.06486,3.40615 -1.6986,0.75306 -3.49326,1.11222 -5.31192,1.11222 -3.13982,0 -5.56243,-1.44239 -7.32962,-4.30983 -1.75006,-2.896382 -2.75892,-7.078751 -2.9648,-12.581917 l 21.78301,0 0,-3.962262 c -4e-5,-7.240931 -1.11183,-12.900475 -3.37658,-17.100283 -2.24764,-4.228681 -5.30509,-6.395184 -9.18263,-6.395229 z m 34.21868,0 c -2.00743,4.5e-5 -3.76777,0.776281 -5.31192,2.224428 -1.52702,1.448235 -2.86186,3.608955 -3.99424,6.534255 l 0,-7.576956 -4.73545,0 0,48.659344 4.73545,0 0,-27.457772 c -1e-5,-4.75004 0.74805,-8.509545 2.2236,-11.261162 1.47551,-2.751527 3.49665,-4.170757 6.05311,-4.170801 2.1275,4.4e-5 3.71284,1.187555 4.77662,3.475668 1.06373,2.288179 1.6059,5.682744 1.60594,10.287976 l 0,29.126091 4.73543,0 0,-29.334631 c -2e-5,-6.719594 -0.85447,-11.846188 -2.55302,-15.292938 -1.6986,-3.475623 -4.22418,-5.213457 -7.53552,-5.213502 z m 75.19051,0 c -1.54418,4.5e-5 -3.14668,0.324455 -4.77662,0.903674 -1.62995,0.550368 -3.29079,1.372939 -5.02368,2.502481 l 0,7.368415 c 1.44122,-1.332298 2.92704,-2.322858 4.48837,-2.989074 1.56132,-0.666127 3.17069,-0.973142 4.81779,-0.973187 2.59076,4.5e-5 4.58788,1.031156 6.01195,3.058588 1.44119,1.998537 2.18239,4.802249 2.18242,8.480629 l 0,0.764647 -6.62962,0 c -4.3065,2.2e-5 -7.58013,1.39029 -9.75911,4.170799 -2.16182,2.780557 -3.21186,6.899218 -3.21186,12.373378 0,4.692162 0.86128,8.451671 2.59419,11.261161 1.75006,2.78054 4.09032,4.1708 7.04139,4.1708 2.33341,0 4.31678,-0.69513 5.92959,-2.0854 1.61279,-1.41923 2.95448,-3.57992 4.03542,-6.53425 l 0,7.36841 4.73544,0 0,-27.735826 c -3e-5,-7.414726 -1.02947,-12.964205 -3.08833,-16.61369 -2.05891,-3.649395 -5.17812,-5.49151 -9.34734,-5.491555 z m 36.48345,0 c -2.28194,4.5e-5 -4.21042,0.776281 -5.80606,2.224428 -1.59565,1.419273 -2.87558,3.579971 -3.8707,6.534255 l 0,-7.576956 -4.77661,0 0,48.659344 4.77661,0 0,-25.650425 c 0,-5.503098 0.71718,-9.656526 2.14123,-12.581915 1.44123,-2.954285 3.50011,-4.448811 6.17667,-4.448855 0.7549,4.4e-5 1.44121,0.08697 2.05889,0.347567 0.63482,0.231763 1.19756,0.66041 1.72945,1.181727 l -0.0411,-8.202576 c -0.48044,-0.14481 -0.88192,-0.289598 -1.27651,-0.347567 -0.39464,-0.08675 -0.78583,-0.139027 -1.11181,-0.139027 z m 87.91442,0 c -4.49524,4.5e-5 -8.03309,2.265023 -10.62384,6.812309 -2.57362,4.547375 -3.87071,10.832539 -3.87071,18.768604 0,7.820264 1.31424,14.024325 3.87071,18.629578 2.55644,4.60526 5.99478,6.88182 10.3356,6.88182 1.59561,0 3.08145,-0.2433 4.48837,-0.76464 1.42405,-0.52134 2.79663,-1.32076 4.11777,-2.36346 l 0,-7.368413 c -1.33829,1.245453 -2.68001,2.212843 -4.03542,2.850043 -1.33828,0.60825 -2.70402,0.90368 -4.07659,0.90368 -3.07118,0 -5.42518,-1.66252 -7.12375,-4.93545 -1.69857,-3.301873 -2.55303,-7.895538 -2.55302,-13.833158 -10e-6,-5.937573 0.85445,-10.5602 2.55302,-13.833156 1.69857,-3.301851 4.05257,-4.935403 7.12375,-4.935448 1.37257,4.5e-5 2.73831,0.336022 4.07659,0.973187 1.35541,0.608292 2.69713,1.535122 4.03542,2.780534 l 0,-7.507442 c -1.30399,-1.013694 -2.6457,-1.731984 -4.03542,-2.224427 -1.38976,-0.521295 -2.82411,-0.834116 -4.28248,-0.834161 z m 27.79494,0 c -4.13492,4.5e-5 -7.40855,2.293986 -9.75912,6.812309 -2.33341,4.518413 -3.50009,10.774593 -3.50009,18.768604 0,7.965096 1.16668,14.221276 3.50009,18.768608 2.35057,4.51837 5.6242,6.74279 9.75912,6.74279 4.11776,0 7.32619,-2.22442 9.67677,-6.74279 2.35054,-4.547332 3.54127,-10.803512 3.54128,-18.768608 -10e-6,-7.994011 -1.19074,-14.250191 -3.54128,-18.768604 -2.35058,-4.518323 -5.55901,-6.812264 -9.67677,-6.812309 z m 34.87753,0 c -2.07604,4.5e-5 -3.84325,0.73573 -5.3531,2.154914 -1.50986,1.419274 -2.83099,3.620523 -3.91189,6.603769 l 0,-7.576956 -4.73543,0 0,48.659344 4.73543,0 0,-27.457772 c -10e-6,-4.721078 0.71717,-8.509545 2.14125,-11.261162 1.42406,-2.78049 3.34566,-4.170757 5.76488,-4.170801 2.04172,4.4e-5 3.55155,1.147004 4.52954,3.406154 0.97795,2.230256 1.48239,5.665372 1.4824,10.35749 l 0,29.126091 4.73544,0 0,-27.457772 c -2e-5,-4.75004 0.71714,-8.509545 2.14125,-11.261162 1.42404,-2.751527 3.35251,-4.170757 5.80605,-4.170801 2.00737,4.4e-5 3.51036,1.147004 4.48837,3.406154 0.97794,2.259218 1.48237,5.694334 1.4824,10.35749 l 0,29.126091 4.73543,0 0,-29.334631 c -5e-5,-6.5458 -0.79958,-11.620275 -2.42949,-15.153911 -1.62997,-3.56251 -3.9565,-5.352484 -6.95903,-5.352529 -2.23048,4.5e-5 -4.15897,0.863167 -5.80605,2.571994 -1.64712,1.708917 -3.05747,4.402565 -4.2413,7.994036 -0.70348,-3.417699 -1.77754,-6.059206 -3.25305,-7.855009 -1.45838,-1.795713 -3.25991,-2.710976 -5.3531,-2.711021 z m -358.12257,6.812309 c 2.33339,4.5e-5 4.23443,1.286031 5.64135,3.892748 1.42403,2.606784 2.14808,6.123003 2.18242,10.496517 l -16.88287,0 c 0.2402,-4.57627 1.13925,-8.115646 2.71773,-10.635544 1.59563,-2.519809 3.69911,-3.753676 6.34137,-3.753721 z m 61.68422,0 c 2.33339,4.5e-5 4.19325,1.286031 5.60017,3.892748 1.42404,2.606784 2.14808,6.123003 2.18241,10.496517 l -16.88284,0 c 0.2402,-4.57627 1.13922,-8.115646 2.71772,-10.635544 1.59562,-2.519809 3.74028,-3.753676 6.38254,-3.753721 z m 261.56082,0 c 2.52212,4.5e-5 4.49523,1.685738 5.97077,5.074475 1.47552,3.359842 2.22359,7.930351 2.2236,13.694129 -10e-6,5.792787 -0.74808,10.334334 -2.2236,13.694131 -1.47554,3.359817 -3.44865,5.074477 -5.97077,5.074477 -2.55645,0 -4.5776,-1.67411 -6.05312,-5.004963 -1.45837,-3.359798 -2.18243,-7.941873 -2.18242,-13.763645 -10e-6,-5.821702 0.70689,-10.432762 2.18242,-13.763642 1.47552,-3.359775 3.51383,-5.004917 6.05312,-5.004962 z m -149.18684,18.560064 4.69426,0 0,1.807347 c -3e-5,5.213524 -0.7927,9.424877 -2.38831,12.581918 -1.57848,3.128103 -3.67513,4.657393 -6.30019,4.657393 -1.90446,0 -3.41432,-0.85153 -4.52955,-2.50248 -1.09808,-1.679887 -1.64711,-3.904314 -1.64711,-6.742795 0,-3.562531 0.70688,-6.09978 2.18243,-7.576956 1.47551,-1.477131 4.16235,-2.224405 7.98847,-2.224427 z m 92.85574,13.416078 0,11.05262 5.43546,0 0,-11.05262 -5.43546,0 z"
       id="text2985" />
    <flowRoot
       transform="translate(-496.59531,-330.57707)"
       xml:space="preserve"
       id="flowRoot2992"
       style="font-size:40px;font-style:normal;font-weight:normal;line-height:125%;letter-spacing:0px;word-spacing:0px;fill:#000000;fill-opacity:1;stroke:none;font-family:Sans"><flowRegion
         id="flowRegion2994"><rect
           id="rect2996"
           width="400.02042"
           height="84.852814"
           x="89.90358"
           y="124.03199" /></flowRegion><flowPara
         id="flowPara2998" /></flowRoot>  </g>
  <g
     inkscape:groupmode="layer"
     id="layer2"
     inkscape:label="logo"
     transform="translate(-169.53391,-40.630483)" />
</svg>
